<?xml version="1.0" ?>
<!-- Uploaded to: SVG Repo, www.svgrepo.com, Generator: SVG Repo Mixer Tools -->
<svg width="800px" height="800px" viewBox="0 0 64 64" xmlns="http://www.w3.org/2000/svg">
<defs>
<style>.cls-1{fill:#9dcbf4;}.cls-2{fill:#389ad6;}.cls-3{fill:none;stroke:#2a5081;stroke-linecap:round;stroke-linejoin:round;stroke-width:2px;}.cls-4{fill:#2a5081;}</style>
</defs>
<title/>
<g data-name="Layer 6" id="Layer_6">
<path class="cls-1" d="M41.93,50.06s-12.11,1.25-19.36,1S12.1,54.54,12.18,40.52,12.85,15,12.85,15s1.55-2.16,10.94-2.22a49.07,49.07,0,0,0,0,7.55,3.75,3.75,0,0,0-3.47,3.74V39.94a3.77,3.77,0,0,0,3.76,3.76h8.59A25.51,25.51,0,0,0,41.93,50.06Z"/>
<path class="cls-2" d="M20.92,22c.23-.24-8.06,7.5-8.74,16.33,0,0-1.44,9.67,2.57,11.67s12.84,1,12.84,1,13-4.37,15-8.45.86,1.24-3.58,1.12-15,.25-17-.6-2.61-3.26-2.61-4.6S20,23,20.92,22Z"/>
<path class="cls-3" d="M50.39,17.46V46.54a4.64,4.64,0,0,1-4.62,4.63H17.18a4.64,4.64,0,0,1-4.62-4.62V17.46a4.64,4.64,0,0,1,4.62-4.63H45.77"/>
<circle class="cls-4" cx="50.44" cy="14.13" r="1"/>
<circle class="cls-4" cx="39.03" cy="25" r="1"/>
<path class="cls-1" d="M29.21,27.1s-8.4,4-8.27,10.15.75,5.9,4.75,6.45S36,39,37,34.65s1.27,3.65-4.33,3S26.73,34,26.73,34,25.73,29.08,29.21,27.1Z"/>
<path class="cls-3" d="M23.77,20.32a3.75,3.75,0,0,0-3.47,3.74V39.94a3.77,3.77,0,0,0,3.76,3.76h8.59"/>
<path class="cls-3" d="M32.65,43.7h7.29a3.77,3.77,0,0,0,3.76-3.76V24.06a3.77,3.77,0,0,0-3.76-3.76H24.06a1.37,1.37,0,0,0-.29,0"/>
<path class="cls-3" d="M34,26.74A5.64,5.64,0,1,0,37.64,32"/>
<path class="cls-1" d="M30.39,28.75a3,3,0,0,1,2-.12,2.21,2.21,0,0,1,1.5,1.58,1.06,1.06,0,0,1-.1.79,1.29,1.29,0,0,1-1.3.38,2.63,2.63,0,0,0-1.65.13c-.65.38-.59,1.33-.35,1.94a1.76,1.76,0,0,0,1.28,1.16c.27,0,.55,0,.83.05a.81.81,0,0,1,.66.43.68.68,0,0,1-.33.79A1.35,1.35,0,0,1,32,36a5,5,0,0,1-3.4-1.94,3.58,3.58,0,0,1,1.54-5.22Z"/>
</g>
</svg>